<svg xmlns="http://www.w3.org/2000/svg" version="1.1" width="600px" height="600px" viewBox="0 0 200 200" style="overflow:hidden!important;"><g id="svga-group-wrapper"><g id="svga-group-backs-single"></g><g id="svga-group-humanwrap-move" transform="matrix(1,0,0,1,0,0)"><g id="svga-group-humanwrap"><g id="svga-group-hair-back-move" transform="matrix(1,0,0,1,0,0)"><g id="svga-group-hair-back"></g></g><g id="svga-group-humanbody-back"><path id="SvgjsPath4773" d="m170 180.3-27.3-6.9-18-9.9-1.5-28.2H76.8l-1.5 28.2-18 9.9-27.3 6.9-9.1 19.7-3 20h164.2l-3-20z" fill="#fbd5c0" stroke-width="none" opacity="1" stroke="none"></path><path id="SvgjsPath4774" d="m76.8 135.3-1.5 28.2-18 9.9-27.3 6.9-9.1 19.7-3 20h14.6v-20l2.7-17.7 23.8-6.4 24.7-8.3 3.5-32.3z" fill="#dc9f7d" stroke-width="none" opacity="1" stroke="none"></path></g><g id="svga-group-chinshadow-single"><path id="SvgjsPath5675" d="m121.5 149.1 2.2-3.8-.5-10H76.8l-.8 15.9 13.8 9.6h14.8z" fill="#cd865f" stroke-width="none" opacity="1" stroke="none"></path></g><g id="svga-group-humanbody-front"><path id="SvgjsPath4775" d="m92.8 168.3 2 7.9 6.9 4.6s-8.5-3-8.7-3.6c-.2-.6-.2-8.9-.2-8.9z" fill="#dc9f7d" stroke-width="none" opacity="1" stroke="none"></path></g><g id="svga-group-clothes-single"><path id="SvgjsPath6944" d="m182.6 199.8-8.6-19.4-2.7-.8-22.8-6.6-15.1-6.2.2-3.4-2.4-4.9.2-3.4-2.7-7-4.9-1.7-6 5.9-15 2.9h-5.6l-15-2.9-6-5.9-4.9 1.7-2.7 7 .2 3.4-2.4 4.9.3 3.4-15.2 6.2-22.8 6.6-2.7.8-8.6 19.4-2.1 20.2h169.4z" fill="#39557e" stroke-width="none" opacity="1" stroke="none"></path><path id="SvgjsPath6945" d="m106 171.1 16-2.7 8.5-5.8-8.2 7.1-16.3 1.4zm57.4 39.7 4.4-18.3 5.4-10.9-6.4 10-4.7 18.4.1 10.1h1.8l-.6-9.3zm-33-38.1-10.2 7.3s-14.5 2.2-15.3 2.2-14.5-.9-14.5-.9l-.9-4.2.9-5.6h11.3L90.4 169l-1.3-2.4 2.7-8.9 29.4-4 6.1-6-3.6-1.2-5.9 5.8-15.1 2.9h-5.5l-15.1-2.9-5.9-5.8-4.9 1.6-2.8 7 .2 3.4-2.3 4.9.2 3.4-15.1 6.2-22.8 6.6-2.8.8-8.5 19.4-2.1 20.2h10.9l-.2-20.8 7.4-12.2 4 14.5 2.4 18-1.3-18.3-3.5-15.1 10.7-2.7 25.6-6.4 18 6 15.1 1.1 16.2-2.5 10.5-7.8 2.1-7-2.8 5.9zm-57.2-21.8 4.2-1.5-3.7 2-1.3 6.4.4 2.9-1.1-3.4 1.5-6.4zm-4.5 17.8.2-5.6 2.9-2.1-2.2 2.5-.3 5.3.4 3-1-3.1zm3.1 4 1 3.1-1.7-2.9-.1-4.9 4.2-4.4-3.5 4.8.1 4.3zm4.4-16.7 4.2-3.4-3.7 4.1-.6 3.9.3 4.2-1-4.5.8-4.3zm1.5 22.1-1.6-2.9-.1-4.4 2.6-3.5-1.9 3.6v3.9l1 3.3zm3.6-.5.8 2.5-1.5-2.2-.3-4.7 2.5-3.9-1.7 4.3.2 4zm-.3-18.2-.2 5.1.1 2.9-.9-3.5.1-4.8 3.6-5.2-2.7 5.5zm3.9 19.7-.3-4.7 2.2-4.4-1.3 4.4.3 4.8 1.1 2.5-2-2.6zm.2-14.5.1 4.4-.9-4.6 3.2-8.1-2.4 8.3zm10.9-6.8.3 7.5.2 4.2s.3-4.2.3-4.5-.8-7.2-.8-7.2zm-.3 14.3.4 5.1v4.3s.8-3.8.8-4.2-1.2-5.2-1.2-5.2zm10.8-14.9 1.4 6s.7 6.6.7 6.2.3-6.4.3-6.4l-2.4-5.8zm-.3 15.1.6 4-.2 5.3.8-5.3-1.2-4zm12.5-16.6c.3 0 1.3 5.4 1.3 5.4l.1 6.5.5-6.8-1.9-5.1zm2.2-.2 1.8 4.8-.3 5.5.9-5.7-2.4-4.6zm-1.6 16 1.1 4.1-.5 4.1 1-4.4-1.6-3.8zm9-5.8 1.4 2.2.4 2.7-.5 1.9 1-2.2-.5-3.1-1.8-1.5zm-2.9-14.4 2.3 3.7 1 4.6-.7 3.6 1.2-3.9-1.1-5-2.7-3z" fill="#27446f" stroke-width="none" opacity="1" stroke="none"></path></g><g id="svga-group-head" transform="matrix(1,0,0,1,0,0)"><g id="svga-group-ears-left-move" transform="matrix(1,0,0,1,0,0)"><g id="svga-group-ears-left"><path id="SvgjsPath9498" d="m58.4 92.2-5-3.9-4.1 14.6 2.7 10.2 5.7 5.1 3.6-.9 2.8-7.6-1.4-12.6z" fill="#fbd5c0" stroke-width="none" opacity="1" stroke="none"></path><path id="SvgjsPath9499" d="m51.4 102 3.2-6.3 2.8 5.5.5 8s-3.1-.7-3.2-1c0-.3 1.2-6.5 1.1-6.8-.1-.3-1-3.6-1.2-3.5-.1.1-3.2 4.1-3.2 4.1z" fill="#dc9f7d" stroke-width="none" opacity="1" stroke="none"></path><path id="SvgjsPath9500" d="m60 113.6-1.4-16.5-5.2-8.8 5.9 2.8 3.4 6 1.4 12.6-2.8 7.6-3.6.9-5.7-5.1s5.4 2.1 5.5 2.1c.3.1 2.5-1.6 2.5-1.6z" fill="#ecb99d" stroke-width="none" opacity="1" stroke="none"></path></g></g><g id="svga-group-ears-right-move" transform="matrix(1,0,0,1,0,0)"><g id="svga-group-ears-right"><path id="SvgjsPath9501" d="m141.6 92.2 5-3.9 4.1 14.6-2.7 10.2-5.7 5.1-3.6-.9-2.8-7.6 1.4-12.6z" fill="#fbd5c0" stroke-width="none" opacity="1" stroke="none"></path><path id="SvgjsPath9502" d="m148.6 102-3.2-6.3-2.8 5.5-.5 8s3.1-.7 3.2-1-1.2-6.5-1.1-6.8c.1-.3 1-3.6 1.2-3.5.1.1 3.2 4.1 3.2 4.1z" fill="#dc9f7d" stroke-width="none" opacity="1" stroke="none"></path><path id="SvgjsPath9503" d="m140 113.6 1.4-16.5 5.2-8.8-5.9 2.8-3.4 6-1.4 12.6 2.8 7.6 3.6.9 5.7-5.1s-5.4 2.1-5.5 2.1c-.3.1-2.5-1.6-2.5-1.6z" fill="#ecb99d" stroke-width="none" opacity="1" stroke="none"></path></g></g><g id="svga-group-faceshape-wrap"><g id="svga-group-faceshape-single"><path id="SvgjsPath5665" d="M138.1 60c-6.9-11.6-19.7-19.5-19.7-19.5-7.2-1.5-18.4-2.3-18.4-2.3s-11.1.8-18.4 2.3c0 0-12.8 7.9-19.7 19.5 0 0-5.1 14.5-5.3 24.8l4.9 33.9 14.2 24.8 16.9 11.7h14.9l16.9-11.7 14.2-24.8 4.9-33.9c-.3-10.3-5.4-24.8-5.4-24.8z" fill="#fbd5c0" stroke-width="none" opacity="1" stroke="none"></path><path id="SvgjsPath5666" d="m92.7 152.7-14.6-12.3s-11.4-20.9-11.8-21.7c-.4-.9-5-34.3-5-34.3.2-4.8 4.5-21.5 5-22.2 2.1-3.2 16.5-18 16.5-18l17.1-4.1 18.5.4c-7.2-1.5-18.4-2.3-18.4-2.3s-11.1.8-18.4 2.3c0 0-12.8 7.9-19.7 19.5 0 0-5.1 14.5-5.3 24.8l4.9 33.9 14.2 24.8 16.9 11.7h14.9l16.9-11.7-18 10.4-13.7-1.2z" fill="#dc9f7d" stroke-width="none" opacity="1" stroke="none"></path></g></g><g id="svga-group-mouth-single-move" transform="matrix(1,0,0,1,0,0)"><g id="svga-group-mouth-single"><path id="SvgjsPath9689" d="m91.05 134.5 3.1 2.2 5.6-.2 6.6.6 2.7-2-2.9 1-6.5-.5-5.5.2z" fill="#dc9f7d" stroke-width="none" opacity="1" transform="translate(0 2)" stroke="none"></path><path id="SvgjsPath9690" d="m89.17 128.58-1.77 2.59 7.88-2.14 2.49 1.51 3.83.27 2.37-1.45 9.7 2.06-1.77-1.92-8.85-5.39-3.26.99-2.89-1.13z" fill="#e28c7c" stroke-width="none" opacity="1" transform="translate(0 2)" stroke="none"></path><path id="SvgjsPath9691" d="m85.3 129.9 2.3 1.9 7.5-2.4 2.8 1.6 3.7.1 2.6-1.5 9.5 2.3 1.87-1.35-2.07.45-9.6-2.7-2.5 1.9-3.5-.1-2.7-2-7.8 2.7z" fill="#d3715f" stroke-width="none" opacity="1" transform="translate(0 2)" stroke="none"></path></g></g><g id="svga-group-eyes-left-move" transform="matrix(1,0,0,1,0,0)"><g id="svga-group-eyes-left"><g id="svga-group-eyesback-left"><path id="SvgjsPath5504" d="m91.1 97-4.5-5.3-10.7-.6-7.7 4.2 11.5 3.8z" fill="#ffffff" stroke-width="none" opacity="1"></path></g><g id="svga-group-eyesiriswrapper-left" transform="matrix(1,0,0,1,0,0)"><g id="svga-group-eyesiriscontrol-left" transform="matrix(1,0,0,1,0,0)"><g id="svga-group-eyesiris-left"><path id="SvgjsPath7161" d="m76.8 98-.9-5.5 4.3-3.5 5.2 1.9.9 5.5-4.2 3.5z" fill="#7b5c33" stroke-width="none" opacity="1"></path><path id="SvgjsPath7162" d="m80.2 89.3 4.9 1.8.9 5.2-4 3.4-4.9-1.8-.9-5.2 4-3.4m-.1-.6-4.5 3.8 1 5.8 5.5 2 4.5-3.8-1-5.8-5.5-2z" fill="#5c3d14" stroke-width="none" opacity="1"></path><path id="SvgjsPath7163" d="m78.1 95.4.7-3.1 3-.9 2.3 2.1-.6 3.1-3 .9z" fill="#000000" stroke-width="none" opacity="1"></path><path id="SvgjsPath7164" d="M79.1 91.9h1.8v1.8h-1.8v-1.8z" fill="#ffffff" stroke-width="none" opacity="1"></path><path id="SvgjsPath7165" d="M81.5 96.3h1v1h-1v-1z" fill="#ffffff" stroke-width="none" opacity="1"></path></g></g></g><g id="svga-group-eyesfront-left"><path id="SvgjsPath5512" d="M67.1 89.3v11.9l7.9 8.4h11.2l7.9-8.4V89.3l-7.9-8.4H75l-7.9 8.4zm1.1 6 7.7-4.2 10.7.6 4.5 5.3-11.5 2.1-11.4-3.8z" fill="#fbd5c0" stroke-width="none" opacity="1" stroke="none"></path><path id="SvgjsPath5513" d="m67.7 95.5 8-4.8 11.4.1 6.6 6.7-3 2.9-8.1 3.2 6.5-3.8 1.9-2.7-4.3-5-11.1-.4z" fill="#dc9f7d" stroke-width="none" opacity="1" stroke="none"></path></g></g></g><g id="svga-group-eyes-right-move" transform="matrix(1,0,0,1,0,0)"><g id="svga-group-eyes-right"><g id="svga-group-eyesback-right"><path id="SvgjsPath5505" d="m108.9 97 4.5-5.3 10.7-.6 7.7 4.2-11.5 3.8z" fill="#ffffff" stroke-width="none" opacity="1"></path></g><g id="svga-group-eyesiriswrapper-right" transform="matrix(1,0,0,1,0,0)"><g id="svga-group-eyesiriscontrol-right" transform="matrix(1,0,0,1,0,0)"><g id="svga-group-eyesiris-right"><path id="SvgjsPath7166" d="m114.6 98-.9-5.5 4.2-3.5 5.3 1.9.9 5.5-4.3 3.5z" fill="#7b5c33" stroke-width="none" opacity="1"></path><path id="SvgjsPath7167" d="m118 89.3 4.9 1.8.9 5.2-4 3.4-4.9-1.8-.9-5.2 4-3.4m-.1-.6-4.5 3.8 1 5.8 5.5 2 4.5-3.8-1-5.8-5.5-2z" fill="#5c3d14" stroke-width="none" opacity="1"></path><path id="SvgjsPath7168" d="m115.9 95.4.6-3.1 3-.9 2.4 2.1-.7 3.1-3 .9z" fill="#000000" stroke-width="none" opacity="1"></path><path id="SvgjsPath7169" d="M116.9 91.9h1.8v1.8h-1.8v-1.8z" fill="#ffffff" stroke-width="none" opacity="1"></path><path id="SvgjsPath7170" d="M119.2 96.3h1v1h-1v-1z" fill="#ffffff" stroke-width="none" opacity="1"></path></g></g></g><g id="svga-group-eyesfront-right"><path id="SvgjsPath5514" d="M125 80.8h-11.2l-7.9 8.4v11.9l7.9 8.4H125l7.9-8.4V89.3l-7.9-8.5zm-4.7 18.3L108.9 97l4.5-5.3 10.7-.6 7.7 4.2-11.5 3.8z" fill="#fbd5c0" stroke-width="none" opacity="1" stroke="none"></path><path id="SvgjsPath5517" d="m132.3 95.5-8-4.8-11.4.1-6.6 6.7 3 2.9 8.1 3.2-6.5-3.8-1.9-2.7 4.3-5 11.1-.4z" fill="#dc9f7d" stroke-width="none" opacity="1" stroke="none"></path></g></g></g><g id="svga-group-facehighlight-single"></g><g id="svga-group-eyebrows-left-move" transform="matrix(1,0,0,1,0,0)"><g id="svga-group-eyebrows-left-rotate" transform="matrix(1,0,0,1,0,0)"><g id="svga-group-eyebrows-left"><path id="SvgjsPath7424" d="m94 85.8-.6 2.4-2.4 1.6-13.1-7.1-7.9-.2-5.6 4.1 4.8-6 8.5-1.9 10.2 3.5z" fill="#2a232b" stroke-width="none" opacity="1"></path><path id="SvgjsPath7425" d="m90.4 83.7.8.5-.5 3.2-.3-3.7zm-6.2-2.8 1.5 3.1-2.1-3.2.6.1zm3.7 1.3.4.2c.2 1.6.5 4.3.5 4.3L87.3 82l.6.2zm-6.3-2.1.8 1.7-2.2-2.2 1.4.5zM69 82.2c.1 0 0 0 0 0zm-1.8 1c.8-.4 1.5-.8 1.8-.9-.3.2-1.6 1.3-2.9 2.2l1.1-1.3zm6.7-3.6 1.8 2-2.3-1.9.5-.1zm-4.7 1 1.7-.4 2.6.9c.1 0-2.4-.3-4.3-.5z" fill="#3a353a" stroke-width="none" opacity="1"></path></g></g></g><g id="svga-group-eyebrows-right-move" transform="matrix(1,0,0,1,0,0)"><g id="svga-group-eyebrows-right-rotate" transform="matrix(1,0,0,1,0,0)"><g id="svga-group-eyebrows-right"><path id="SvgjsPath7426" d="m106 85.8.6 2.4 2.4 1.6 13.1-7.1 7.9-.2 5.6 4.1-4.8-6-8.5-1.9-10.2 3.5z" fill="#2a232b" stroke-width="none" opacity="1"></path><path id="SvgjsPath7427" d="m109.6 83.7-.8.5.5 3.2.3-3.7zm6.2-2.8-1.5 3.1 2.1-3.2-.6.1zm-3.7 1.3-.4.2c-.2 1.6-.5 4.3-.5 4.3l1.5-4.8-.6.3zm6.3-2.1-.8 1.7 2.2-2.2-1.4.5zm12.6 2.1c-.1 0 0 0 0 0zm1.8 1c-.8-.4-1.5-.8-1.8-.9.4.2 1.6 1.3 2.9 2.2l-1.1-1.3zm-6.7-3.6-1.8 2 2.3-1.9-.5-.1zm4.7 1-1.7-.4-2.6.9c-.1 0 2.3-.3 4.3-.5z" fill="#3a353a" stroke-width="none" opacity="1"></path></g></g></g><g id="svga-group-beardwrap"><g id="svga-group-beard-single-move" transform="matrix(1,0,0,1,0,0)"><g id="svga-group-beard-single"></g></g></g><g id="svga-group-mustache-single-move" transform="matrix(1,0,0,1,0,0)"><g id="svga-group-mustache-single"></g></g><g id="svga-group-nose-single-move" transform="matrix(1,0,0,1,0,0)"><g id="svga-group-nose-single"><path id="SvgjsPath4955" d="m96.12 99.91-.45 6.4-5.78 8.87 2.98 2.25 1.63-2.02 4.32 3.82h2.41l4.27-3.82 1.57 1.96 3.15-2.19-5.79-8.92-.56-6.46-3.82-1.63z" fill="#fbd5c0" stroke-width="none" opacity="1" transform="translate(0 1)" stroke="none"></path><path id="SvgjsPath4956" d="m104.86 106.44-1.95-15.67 1.1 14.55-.86-.22 6.58 10.06-2.34 1.73-1.28-1.51.28-1.34-5.15 4.47h-2.4l-5.15-4.47.29 1.34-1.29 1.51-2.34-1.73 6.59-10.06-.86.22 1.33-22.81-2.19 23.93-5.82 8.83 3.81 2.79 1.44-2.01 4.19 3.91h2.4l4.2-3.91 1.43 2.01 3.81-2.79z" fill="#dc9f7d" stroke-width="none" opacity="1" transform="translate(0 1)" stroke="none"></path><path id="SvgjsPath4957" d="m96.15 113.17 2.37 1.46 3.1.06 2.55-1.16-.3-1.76-3.59-.6-3.94.66z" fill="#ffe1d0" stroke-width="none" opacity="1" transform="translate(0 1)" stroke="none"></path></g></g><g id="svga-group-hair-front"><path id="SvgjsPath6296" d="m99.5 63.6-9.3-2.3-5-1.4-5.1-1.7-7.3-1.8-6.5 8.8-3 18.8-3 9.3-4.2-5.7-.4-10.7 1.2-15.1 7.3-12.1-1.1-6.2 3.9-9.7.4-6.5 3 7.7-1.2-7.3 3.6-7.2v4.6l1.8 3.6-.4-4 4.5 5.3 6.8 2-5.8-3.9-1.6-4.4 4.6 3 4 .4-2.8-3.6 5.9 3 21.1 2.6 4.9 3.5 10.3 4.8 1.8 3.2 4.6 4.3.8 4.2 8.5 6.8 2.4 19.2-.2 13.7-5.2 6.3-2.3-9.1-2-23.6L125 55l-14.8 6.1z" fill="#2a232b" stroke-width="none" opacity="1" stroke="none"></path><path id="SvgjsPath6297" d="m99.5 63.6-18.2-9L70.4 35l-1.2-7.3 3.6-7.3V25l1.8 3.6 10.5 9.5 11.4 7.7 1 14.1 2 3.7zm-26.7-7.2-8.6-6.7-1.1-6.2 3.9-9.7 5.3 15.7 14.5 10.7-14-3.8zm5.3-32.7 1.6 4.4 5.8 3.8 20.4 5.9 4.9 10.9-4.2 11.9-7.2 2.8 10.7-2.5s9.7-17.1 9.7-17.9-6.7-10-6.7-10l-28.2-4.2-4.9-2-1.9-3.1zm55.2 25.4L125 55l-10.1 4 10.5-9.2 2.4-9.2 4.6 4.2.9 4.3zm1.2 13.3 3.4-2.2 3.9-4.3-3.9 12.8-2.6 4.4-.8-10.7zm-68.2 2.8-3 18.8-6.5-22.2 6-9.7 3.5 13.1z" fill="#221b23" stroke-width="none" opacity="1" stroke="none"></path><path id="SvgjsPath6298" d="m79.3 31 25.5 7.1 6.1 10.8-4.3 11.9-6.7-17.1-15.1-7.5-5.5-5.2zm35.2 26.2 11-7.3 2.4-9.2-1.8-3.2-10.3-4.8 7.2 8.7-.6 5.2-7.9 10.6z" fill="#322c33" stroke-width="none" opacity="1" stroke="none"></path></g><g id="svga-group-glasses-single-move" transform="matrix(1,0,0,1,0,0)"><g id="svga-group-glasses-single"></g></g></g></g></g><rect id="svga-credit-rect" width="200" height="15" x="0" y="185" fill="#ecf0f1" opacity="0.5" style="display: none;"></rect><text id="svga-credit-text" font-family="Avenir Next, Roboto, Helvetica, Arial, sans-serif" font-size="10px" text-anchor="start" font-weight="400" size="10px" anchor="start" weight="400" fill="#333333" x="33.40447998046875" y="182.60824704170227" style="display: none;"><tspan id="SvgjsTspan4754" dy="13" x="33.40447998046875">Created on AvatarMaker.com</tspan></text></g><defs id="SvgjsDefs4701"></defs></svg>